<?xml version="1.0" encoding="utf-8"?>
<!-- Generator: Adobe Illustrator 23.0.2, SVG Export Plug-In . SVG Version: 6.00 Build 0)  -->
<svg version="1.1" id="ophira-logo" xmlns="http://www.w3.org/2000/svg" xmlns:xlink="http://www.w3.org/1999/xlink" x="0px" y="0px"
	 viewBox="0 0 504 360" style="fill:white;enable-background:new 0 0 504 360;" xml:space="preserve">
<style type="text/css">
	.st0{fill:#000000;}
</style>
<g>
	<path d="M259,198.8l2.3,0.6h1.3c0.5,0.2,1,0.3,1.5,0.5c0.4,0.2,0.8,0.3,1.2,0.5c0.4,0.1,0.6,0.3,0.8,0.4c0.6,0.3,1.4,0.6,2.2,0.9
		c0.8,0.2,1.5,0.6,2,1.2c0.3,0.3,0.7,0.8,1,1.5c0.4,0.7,0.7,1.2,1,1.5c1.4,1.2,2.3,2.4,2.7,3.5c0.4,1.1,0.6,2.1,0.6,3l-0.2,4.2v1.8
		c0,0.5-0.2,1.2-0.5,2.1c-0.4,0.9-0.8,1.9-1.3,2.9c-0.5,1-0.9,1.9-1.4,2.8c-0.4,0.9-0.7,1.4-0.8,1.7c-0.3,0.9-0.8,1.6-1.5,2.2
		c-0.7,0.6-1.5,1-2.2,1.4c-1.1,0.9-2.2,1.7-3.2,2.4c-1,0.7-2.1,1.1-3.3,1.1c-0.5,0-1-0.1-1.5-0.2c-0.5-0.1-1.1-0.2-2-0.2
		c-0.2,0-0.4,0-0.6,0c-0.3,0-0.5,0.1-0.8,0.1c-0.3,0-0.7,0.1-1,0.1h-1.1c-0.3,0-0.8-0.1-1.3-0.2c-0.5-0.1-1-0.3-1.5-0.5
		c-0.5-0.2-1.1-0.5-1.8-0.8c-1.1-0.5-2.3-1.1-3.5-1.7c-1.2-0.6-2.1-1.6-2.8-3.1c-0.9-2.1-1.7-4.3-2.4-6.6c-0.7-2.3-1.1-4.5-1.1-6.6
		c0-0.4,0-0.8,0.1-1.1c0.1-0.3,0.2-0.7,0.3-1c0.1-0.4,0.3-0.7,0.4-1.1c0.2-0.4,0.3-0.9,0.5-1.4c0-0.6,0.1-1.2,0.3-1.8
		c0.2-0.5,0.5-1.1,0.8-1.8c0-0.1,0.2-0.5,0.6-1.2s0.8-1.4,1.4-2.1s1.1-1.4,1.7-2c0.6-0.6,1.1-0.9,1.5-0.9l1.8-0.7c0.5,0,1,0,1.5-0.1
		c0.4,0,0.9-0.2,1.4-0.4c0.5-0.2,0.9-0.4,1.3-0.5c0.4-0.1,0.8-0.2,1.3-0.2h3H259z M253.6,203.7c-0.7,0-1.4,0.5-2.1,1.4
		c-0.7,1-1.4,2.1-1.9,3.3c-0.6,1.2-1,2.4-1.4,3.6s-0.5,1.9-0.5,2.2v1.1v3.8c0,0.6,0.4,1.5,1.1,2.7c0.7,1.2,1.6,2.4,2.7,3.6
		c1.1,1.2,2.3,2.3,3.5,3.2c1.2,0.9,2.4,1.4,3.4,1.4h1.2c0.9,0,1.8-0.2,2.9-0.7c1-0.5,2-1.1,2.8-1.9c0.9-0.8,1.6-1.7,2.2-2.8
		c0.6-1.1,0.9-2.2,0.9-3.4v-1.8v-4.2c0-0.9-0.1-1.6-0.3-2.1c-0.2-0.5-0.5-1-0.9-1.5c-0.4-0.5-0.8-1-1.3-1.6c-0.5-0.6-1-1.4-1.6-2.5
		c-0.3-0.3-0.7-0.6-1.1-0.9s-0.8-0.7-1.3-1.1c-0.4-0.3-0.9-0.6-1.4-0.9c-0.5-0.3-0.9-0.4-1.4-0.4h-1.2c-0.3,0-0.7,0-1.2-0.1
		c-0.5,0-0.9-0.1-1.4-0.2C254.7,203.9,254.2,203.8,253.6,203.7z"/>
</g>
<g id="Layer_6">
	<path d="M257.8,69.4c0.9-0.1,0.2-1.7,1.6-1.7s11.7,18.9,11.4,22.7c-0.2,3.8-1.2,11.2-0.8,12.8c0.4,1.7,1.2,10.1,2.7,12.7
		c1.5,2.6,5.9,10,6.3,11.3c0.3,1.3,0,4.2,0,4.2s4.6,2.2,4.9,3.3c0,0-0.8,7.8,0.8,9.8s3.3,5.2,4.7,5.9c1.4,0.7-1.9,4.8-1.9,4.8
		s-1.3-0.1-1.4-0.3c-0.1-0.2,0.9,4.4,0.4,6c-0.4,1.6-4.1,7.9-3.5,13.1s7.3,8.1,10,11.6s3.8,5.4,4.6,5.6c0.8,0.2,4.5,1.6,6.7,3.4
		c2.2,1.8,5.3,5,7.6,5.5c2.3,0.5,11.8,4.4,22.8,4c10.9-0.4,22.7-2.2,22.6-10c-0.1-7.8-7.7,0.6-10.9,0.4c-3.2-0.2-9.6-3.2-11.1-6.1
		s1.7,1.3,7.6,0.6c5.8-0.7,12.5-9.9,22.1-6.2c9.6,3.7,5.9,19.2,5.9,19.2s-3.6,8.3-3.2,10s10,40.1,7.6,44
		c-2.3,3.9-11.7,16.7-14.3,16.3c-2.7-0.4,7.3-8.3,7.1-15.6c-0.1-7.3-9.3-34.8-9.8-38.4c-0.4-3.6,1.2-4.6,0-5.9s-7,2.1-6.5,3.1
		c0.4,1,4.4,6.1,4.7,7.9c0.3,1.8,1.5,12.6,0.1,20.6c-1.3,8-6.4,14.8-5.2,16.3c1.2,1.5,5.3,6.5,5.3,6.5s-5.2-1.6-7.1-1
		s-9.1,24.1-22.2,25.5c-1.3,0.1,27.9-44.4,18.2-64c-9.6-19.6-14.5-8.9-14.5-8.9s2.8,53-19.9,71.3c0,0,15.9-56.3,7.1-70.7
		c0,0-5.8-3.1-13.5-6.5s-10.1-8.6-13-7.4c-3,1.2-0.4,21.3-2.4,25.3c-1.9,4-7.2,13.6-14.7,12.3c-0.6-0.1,15.2-20.3,5.1-24.9
		c0,0-4.8,3.8-0.3-2.1c1.1-1.5,2.6-23.9-9.3-23.3c-11.9,0.6-5.8,2.2-12.6,2.2"/>
	<path d="M257.8,69.4c-0.9-0.1-0.2-1.7-1.6-1.7c-1.3,0-11.7,18.9-11.4,22.7c0.2,3.8,1.2,11.2,0.8,12.8s-1.2,10.1-2.7,12.7
		c-1.5,2.6-5.9,10-6.3,11.3c-0.3,1.3,0,4.2,0,4.2s-4.6,2.2-4.9,3.3c0,0,0.8,7.8-0.8,9.8s-3.3,5.2-4.7,5.9c-1.4,0.7,1.9,4.8,1.9,4.8
		s1.3-0.1,1.4-0.3s-0.9,4.4-0.4,6s4.1,7.9,3.5,13.1s-7.3,8.1-10,11.6c-2.7,3.5-3.8,5.4-4.6,5.6c-0.8,0.2-4.5,1.6-6.7,3.4
		c-2.2,1.8-5.3,5-7.6,5.5c-2.3,0.5-11.8,4.4-22.8,4s-22.7-2.2-22.6-10c0.1-7.8,7.7,0.6,10.9,0.4c3.2-0.2,9.6-3.2,11.1-6.1
		s-1.7,1.3-7.6,0.6c-5.8-0.7-12.5-9.9-22.1-6.2c-9.6,3.7-5.9,19.2-5.9,19.2s3.6,8.3,3.2,10s-10,40.1-7.6,44
		c2.3,3.9,11.7,16.7,14.3,16.3c2.7-0.4-7.3-8.3-7.1-15.6c0.1-7.3,9.3-34.8,9.8-38.4c0.4-3.6-1.2-4.6,0-5.9s7,2.1,6.5,3.1
		s-4.4,6.1-4.7,7.9c-0.3,1.8-1.5,12.6-0.1,20.6c1.3,8,6.4,14.8,5.2,16.3c-1.2,1.5-5.3,6.5-5.3,6.5s5.2-1.6,7.1-1
		c1.9,0.6,9.1,24.1,22.2,25.5c1.3,0.1-27.9-44.4-18.2-64c9.6-19.6,14.5-8.9,14.5-8.9s-2.8,53,19.9,71.3c0,0-15.9-56.3-7.1-70.7
		c0,0,5.8-3.1,13.5-6.5s10.1-8.6,13-7.4c3,1.2,0.4,21.3,2.4,25.3c1.9,4,7.2,13.6,14.7,12.3c0.6-0.1-15.2-20.3-5.1-24.9
		c0,0,4.8,3.8,0.3-2.1c-1.1-1.5-2.6-23.9,9.3-23.3c11.9,0.6,5.8,2.2,12.6,2.2"/>
</g>
<g id="Layer_2">
	<path class="st0" d="M233.9,148.4c1.2,0,13.4-16.7,13.6-18.3c0.1-1.7-2.9,0.1-4.6,0.7c-1.7,0.6,1.9,0.3,1.9,0.7s-5.7,0.7-7.9,4.2
		c-2.2,3.6-1.7,6.1-2,8.2C234.6,146,233.9,148.4,233.9,148.4z"/>
	<path class="st0" d="M282,148.4c-1.2,0-13.4-16.7-13.6-18.3c-0.1-1.7,2.9,0.1,4.6,0.7c1.7,0.6-1.9,0.3-1.9,0.7s5.7,0.7,7.9,4.2
		c2.2,3.6,1.7,6.1,2,8.2C281.3,146,282,148.4,282,148.4z"/>
	<path class="st0" d="M255.7,73.2c1.1,0,2.8,14.6,1.2,18.2c-1.6,3.7-4.9-3.4-4.9-4.8C252,85.3,255.7,73.2,255.7,73.2z"/>
	<path class="st0" d="M260.9,73.2c-1.1,0-2.8,14.6-1.2,18.2c1.6,3.7,4.9-3.4,4.9-4.8C264.5,85.3,260.9,73.2,260.9,73.2z"/>
</g>
</svg>
